<?xml version="1.0" encoding="UTF-8"?>
<svg xmlns="http://www.w3.org/2000/svg" viewBox="0 0 1920 1920">
  <defs>
    <style>
      .cls-1 {
        fill: #e6e6e6;
      }
    </style>
  </defs>
  <g id="base">
    <g>
      <path class="cls-1" d="M223.5,1647.5V277.5H1802.5V1647.5H223.5Zm340-334c-83.81,0-152,68.19-152,152s68.19,152,152,152,152-68.19,152-152-68.19-152-152-152Zm657-294c-61.76,0-112,50.24-112,112s50.24,112,112,112,112-50.24,112-112-50.24-112-112-112Zm-364.5-86c-78.02,0-141.5,63.48-141.5,141.5s63.48,141.5,141.5,141.5,141.5-63.48,141.5-141.5-63.48-141.5-141.5-141.5Zm734.5-43c-68.92,0-125,56.07-125,125s56.08,125,125,125,125-56.08,125-125-56.08-125-125-125Zm-383.5-451c-82.99,0-150.5,67.51-150.5,150.5s67.51,150.5,150.5,150.5,150.5-67.51,150.5-150.5-67.51-150.5-150.5-150.5Zm-663.5,19c-72.79,0-132,59.21-132,132s59.21,132,132,132,132-59.21,132-132-59.21-132-132-132Z"/>
      <path d="M1802,278V1647H224V278H1802m-595,463c40.33,0,78.25-15.71,106.77-44.23,28.52-28.52,44.23-66.44,44.23-106.77s-15.71-78.25-44.23-106.77c-28.52-28.52-66.44-44.23-106.77-44.23s-78.25,15.71-106.77,44.23c-28.52,28.52-44.23,66.44-44.23,106.77s15.71,78.25,44.23,106.77c28.52,28.52,66.44,44.23,106.77,44.23m-663.5-18c35.39,0,68.67-13.78,93.69-38.81s38.81-58.3,38.81-93.69-13.78-68.67-38.81-93.69-58.3-38.81-93.69-38.81-68.67,13.78-93.69,38.81-38.81,58.3-38.81,93.69,13.78,68.67,38.81,93.69,58.3,38.81,93.69,38.81m1047,418c33.52,0,65.04-13.05,88.74-36.76,23.7-23.7,36.76-55.22,36.76-88.74s-13.05-65.04-36.76-88.74c-23.7-23.7-55.22-36.76-88.74-36.76s-65.04,13.05-88.74,36.76c-23.7,23.7-36.76,55.22-36.76,88.74s13.05,65.04,36.76,88.74c23.7,23.7,55.22,36.76,88.74,36.76m-734.5,76c37.93,0,73.59-14.77,100.41-41.59,26.82-26.82,41.59-62.48,41.59-100.41s-14.77-73.59-41.59-100.41-62.48-41.59-100.41-41.59-73.59,14.77-100.41,41.59-41.59,62.48-41.59,100.41,14.77,73.59,41.59,100.41c26.82,26.82,62.48,41.59,100.41,41.59m364.5,27c30.05,0,58.3-11.7,79.55-32.95,21.25-21.25,32.95-49.5,32.95-79.55s-11.7-58.3-32.95-79.55c-21.25-21.25-49.5-32.95-79.55-32.95s-58.3,11.7-79.55,32.95c-21.25,21.25-32.95,49.5-32.95,79.55s11.7,58.3,32.95,79.55c21.25,21.25,49.5,32.95,79.55,32.95m-657,374c40.73,0,79.03-15.86,107.83-44.67,28.8-28.8,44.67-67.1,44.67-107.83s-15.86-79.03-44.67-107.83c-28.8-28.8-67.1-44.67-107.83-44.67s-79.03,15.86-107.83,44.67c-28.8,28.8-44.67,67.1-44.67,107.83s15.86,79.03,44.67,107.83c28.8,28.8,67.1,44.67,107.83,44.67M1803,277H223V1648H1803V277h0Zm-596,463c-82.84,0-150-67.16-150-150s67.16-150,150-150,150,67.16,150,150-67.16,150-150,150h0Zm-663.5-18c-72.63,0-131.5-58.87-131.5-131.5s58.87-131.5,131.5-131.5,131.5,58.87,131.5,131.5-58.87,131.5-131.5,131.5h0Zm1047,418c-68.76,0-124.5-55.74-124.5-124.5s55.74-124.5,124.5-124.5,124.5,55.74,124.5,124.5-55.74,124.5-124.5,124.5h0Zm-734.5,76c-77.87,0-141-63.13-141-141s63.13-141,141-141,141,63.13,141,141-63.13,141-141,141h0Zm364.5,27c-61.58,0-111.5-49.92-111.5-111.5s49.92-111.5,111.5-111.5,111.5,49.92,111.5,111.5-49.92,111.5-111.5,111.5h0Zm-657,374c-83.67,0-151.5-67.83-151.5-151.5s67.83-151.5,151.5-151.5,151.5,67.83,151.5,151.5-67.83,151.5-151.5,151.5h0Z"/>
    </g>
  </g>
  <g id="yurinoki-school">
    <g>
      <circle class="cls-1" cx="543.44" cy="589.64" r="113.94"/>
      <path d="M543.44,476.19c30.3,0,58.79,11.8,80.22,33.23,21.43,21.43,33.23,49.92,33.23,80.22s-11.8,58.79-33.23,80.22c-21.43,21.43-49.92,33.23-80.22,33.23s-58.79-11.8-80.22-33.23c-21.43-21.43-33.23-49.92-33.23-80.22s11.8-58.79,33.23-80.22c21.43-21.43,49.92-33.23,80.22-33.23m0-1c-63.21,0-114.44,51.24-114.44,114.44s51.24,114.44,114.44,114.44,114.44-51.24,114.44-114.44-51.24-114.44-114.44-114.44h0Z"/>
    </g>
  </g>
  <g id="century-praza">
    <g>
      <circle class="cls-1" cx="1206.89" cy="590.2" r="130.04"/>
      <path d="M1206.89,460.66c34.6,0,67.13,13.48,91.6,37.94,24.47,24.47,37.94,57,37.94,91.6s-13.47,67.13-37.94,91.6c-24.47,24.47-57,37.94-91.6,37.94s-67.13-13.48-91.6-37.94c-24.47-24.47-37.94-57-37.94-91.6s13.47-67.13,37.94-91.6,57-37.94,91.6-37.94m0-1c-72.1,0-130.54,58.45-130.54,130.54s58.45,130.54,130.54,130.54,130.54-58.45,130.54-130.54-58.45-130.54-130.54-130.54h0Z"/>
    </g>
  </g>
  <g id="community-hole">
    <g>
      <circle class="cls-1" cx="563.85" cy="1465.15" r="131.35" transform="translate(-870.87 827.83) rotate(-45)"/>
      <path d="M563.85,1334.3c34.95,0,67.81,13.61,92.53,38.33,24.71,24.71,38.33,57.57,38.33,92.53s-13.61,67.81-38.33,92.53c-24.71,24.71-57.57,38.33-92.53,38.33s-67.81-13.61-92.53-38.33c-24.71-24.71-38.33-57.57-38.33-92.53s13.61-67.81,38.33-92.53c24.71-24.71,57.57-38.33,92.53-38.33m0-1c-72.82,0-131.85,59.03-131.85,131.85s59.03,131.85,131.85,131.85,131.85-59.03,131.85-131.85-59.03-131.85-131.85-131.85h0Z"/>
    </g>
  </g>
  <g id="akasia-4">
    <g>
      <circle class="cls-1" cx="856.41" cy="1075.3" r="122.21" transform="translate(-342.18 1748.41) rotate(-80.78)"/>
      <path d="M856.41,953.59c32.51,0,63.08,12.66,86.06,35.65,22.99,22.99,35.65,53.55,35.65,86.06s-12.66,63.08-35.65,86.06c-22.99,22.99-53.55,35.65-86.06,35.65s-63.08-12.66-86.06-35.65-35.65-53.55-35.65-86.06,12.66-63.08,35.65-86.06c22.99-22.99,53.55-35.65,86.06-35.65m0-1c-67.77,0-122.71,54.94-122.71,122.71s54.94,122.71,122.71,122.71,122.71-54.94,122.71-122.71-54.94-122.71-122.71-122.71h0Z"/>
    </g>
  </g>
  <g id="erumu-praza">
    <g>
      <circle class="cls-1" cx="1220.64" cy="1133.47" r="96.54" transform="translate(-340.84 553.4) rotate(-22.5)"/>
      <path d="M1220.64,1037.43c52.96,0,96.04,43.08,96.04,96.04s-43.08,96.04-96.04,96.04-96.04-43.08-96.04-96.04,43.08-96.04,96.04-96.04m0-1c-53.59,0-97.04,43.45-97.04,97.04s43.45,97.04,97.04,97.04,97.04-43.45,97.04-97.04-43.45-97.04-97.04-97.04h0Z"/>
    </g>
  </g>
  <g id="central-park">
    <g>
      <circle class="cls-1" cx="1590.65" cy="1019.51" r="107.85" transform="translate(153.93 2246.47) rotate(-73.15)"/>
      <path d="M1590.65,912.16c28.67,0,55.63,11.17,75.91,31.44,20.28,20.28,31.44,47.23,31.44,75.91s-11.17,55.63-31.44,75.91c-20.28,20.28-47.23,31.44-75.91,31.44s-55.63-11.17-75.91-31.44c-20.28-20.28-31.44-47.23-31.44-75.91s11.17-55.63,31.44-75.91c20.28-20.28,47.23-31.44,75.91-31.44m0-1c-59.84,0-108.35,48.51-108.35,108.35s48.51,108.35,108.35,108.35,108.35-48.51,108.35-108.35-48.51-108.35-108.35-108.35h0Z"/>
    </g>
  </g>
</svg>